<?xml version="1.0" standalone="no"?>
<!DOCTYPE svg PUBLIC "-//W3C//DTD SVG 20010904//EN" 
"http://www.w3.org/TR/2001/REC-SVG-20010904/DTD/svg10.dtd"> 
<svg xmlns="http://www.w3.org/2000/svg" xmlns:xlink="http://www.w3.org/1999/xlink" 
    width="29.72cm" height="21.00cm" viewBox="0 0 11700 8267 "> 
<title>SVG Picture created as diode bridge.svg </title>
<desc>Picture generated by wxSVG v0100 </desc>
<g style="fill:black; stroke:black; stroke-width:1">
</g>
<g style="fill:#000000; fill-opacity:0.0; stroke:#000000; stroke-opacity:1.00; stroke-linecap:round; stroke-linejoin:round; stroke-width:6" 
   transform="translate(0.00 0.00) scale(1.00 1.00)">
<path d="M1215 2024 L1235 2084" /> 
<path d="M1235 2084 L1255 2024" /> 
<g style = "stroke-linecap:round;" > 
<path d="M1255 2024 L1255 2024" /> 
</g><path d="M1274 2084 L1274 2044" /> 
<g style = "stroke-linecap:round;" > 
<path d="M1274 2044 L1274 2044" /> 
</g><path d="M1274 2024 L1271 2027" /> 
<path d="M1271 2027 L1274 2030" /> 
<path d="M1274 2030 L1277 2027" /> 
<path d="M1277 2027 L1274 2024" /> 
<path d="M1274 2024 L1274 2030" /> 
<g style = "stroke-linecap:round;" > 
<path d="M1274 2030 L1274 2030" /> 
</g><path d="M1303 2044 L1303 2084" /> 
<g style = "stroke-linecap:round;" > 
<path d="M1303 2084 L1303 2084" /> 
</g><path d="M1303 2050 L1306 2047" /> 
<path d="M1306 2047 L1312 2044" /> 
<path d="M1312 2044 L1320 2044" /> 
<path d="M1320 2044 L1326 2047" /> 
<path d="M1326 2047 L1329 2053" /> 
<path d="M1329 2053 L1329 2084" /> 
<g style = "stroke-linecap:round;" > 
<path d="M1329 2084 L1329 2084" /> 
</g><path d="M1389 2084 L1354 2084" /> 
<g style = "stroke-linecap:round;" > 
<path d="M1354 2084 L1354 2084" /> 
</g><path d="M1372 2084 L1372 2024" /> 
<path d="M1372 2024 L1366 2033" /> 
<path d="M1366 2033 L1360 2039" /> 
<path d="M1360 2039 L1354 2041" /> 
<g style = "stroke-linecap:round;" > 
<path d="M1354 2041 L1354 2041" /> 
</g><path d="M2206 2624 L2226 2684" /> 
<path d="M2226 2684 L2246 2624" /> 
<g style = "stroke-linecap:round;" > 
<path d="M2246 2624 L2246 2624" /> 
</g><path d="M2265 2684 L2265 2644" /> 
<g style = "stroke-linecap:round;" > 
<path d="M2265 2644 L2265 2644" /> 
</g><path d="M2265 2624 L2262 2627" /> 
<path d="M2262 2627 L2265 2630" /> 
<path d="M2265 2630 L2268 2627" /> 
<path d="M2268 2627 L2265 2624" /> 
<path d="M2265 2624 L2265 2630" /> 
<g style = "stroke-linecap:round;" > 
<path d="M2265 2630 L2265 2630" /> 
</g><path d="M2294 2644 L2294 2684" /> 
<g style = "stroke-linecap:round;" > 
<path d="M2294 2684 L2294 2684" /> 
</g><path d="M2294 2650 L2297 2647" /> 
<path d="M2297 2647 L2303 2644" /> 
<path d="M2303 2644 L2311 2644" /> 
<path d="M2311 2644 L2317 2647" /> 
<path d="M2317 2647 L2320 2653" /> 
<path d="M2320 2653 L2320 2684" /> 
<g style = "stroke-linecap:round;" > 
<path d="M2320 2684 L2320 2684" /> 
</g><path d="M2345 2630 L2348 2627" /> 
<path d="M2348 2627 L2354 2624" /> 
<path d="M2354 2624 L2368 2624" /> 
<path d="M2368 2624 L2374 2627" /> 
<path d="M2374 2627 L2377 2630" /> 
<path d="M2377 2630 L2380 2636" /> 
<path d="M2380 2636 L2380 2641" /> 
<path d="M2380 2641 L2377 2650" /> 
<path d="M2377 2650 L2343 2684" /> 
<path d="M2343 2684 L2380 2684" /> 
<g style = "stroke-linecap:round;" > 
<path d="M2380 2684 L2380 2684" /> 
</g><path d="M1139 2624 L1159 2684" /> 
<path d="M1159 2684 L1179 2624" /> 
<g style = "stroke-linecap:round;" > 
<path d="M1179 2624 L1179 2624" /> 
</g><path d="M1207 2684 L1201 2681" /> 
<path d="M1201 2681 L1198 2679" /> 
<path d="M1198 2679 L1195 2673" /> 
<path d="M1195 2673 L1195 2656" /> 
<path d="M1195 2656 L1198 2650" /> 
<path d="M1198 2650 L1201 2647" /> 
<path d="M1201 2647 L1207 2644" /> 
<path d="M1207 2644 L1215 2644" /> 
<path d="M1215 2644 L1221 2647" /> 
<path d="M1221 2647 L1224 2650" /> 
<path d="M1224 2650 L1227 2656" /> 
<path d="M1227 2656 L1227 2673" /> 
<path d="M1227 2673 L1224 2679" /> 
<path d="M1224 2679 L1221 2681" /> 
<path d="M1221 2681 L1215 2684" /> 
<path d="M1215 2684 L1207 2684" /> 
<path d="M1278 2644 L1278 2684" /> 
<g style = "stroke-linecap:round;" > 
<path d="M1278 2684 L1278 2684" /> 
</g><path d="M1252 2644 L1252 2676" /> 
<path d="M1252 2676 L1255 2681" /> 
<path d="M1255 2681 L1261 2684" /> 
<path d="M1261 2684 L1269 2684" /> 
<path d="M1269 2684 L1275 2681" /> 
<path d="M1275 2681 L1278 2679" /> 
<g style = "stroke-linecap:round;" > 
<path d="M1278 2679 L1278 2679" /> 
</g><path d="M1298 2644 L1321 2644" /> 
<g style = "stroke-linecap:round;" > 
<path d="M1321 2644 L1321 2644" /> 
</g><path d="M1306 2624 L1306 2676" /> 
<path d="M1306 2676 L1309 2681" /> 
<path d="M1309 2681 L1315 2684" /> 
<path d="M1315 2684 L1321 2684" /> 
<g style = "stroke-linecap:round;" > 
<path d="M1321 2684 L1321 2684" /> 
</g><path d="M1340 2661 L1386 2661" /> 
<g style = "stroke-linecap:round;" > 
<path d="M1386 2661 L1386 2661" /> 
</g><path d="M2106 2024 L2126 2084" /> 
<path d="M2126 2084 L2146 2024" /> 
<g style = "stroke-linecap:round;" > 
<path d="M2146 2024 L2146 2024" /> 
</g><path d="M2174 2084 L2168 2081" /> 
<path d="M2168 2081 L2165 2079" /> 
<path d="M2165 2079 L2162 2073" /> 
<path d="M2162 2073 L2162 2056" /> 
<path d="M2162 2056 L2165 2050" /> 
<path d="M2165 2050 L2168 2047" /> 
<path d="M2168 2047 L2174 2044" /> 
<path d="M2174 2044 L2182 2044" /> 
<path d="M2182 2044 L2188 2047" /> 
<path d="M2188 2047 L2191 2050" /> 
<path d="M2191 2050 L2194 2056" /> 
<path d="M2194 2056 L2194 2073" /> 
<path d="M2194 2073 L2191 2079" /> 
<path d="M2191 2079 L2188 2081" /> 
<path d="M2188 2081 L2182 2084" /> 
<path d="M2182 2084 L2174 2084" /> 
<path d="M2245 2044 L2245 2084" /> 
<g style = "stroke-linecap:round;" > 
<path d="M2245 2084 L2245 2084" /> 
</g><path d="M2219 2044 L2219 2076" /> 
<path d="M2219 2076 L2222 2081" /> 
<path d="M2222 2081 L2228 2084" /> 
<path d="M2228 2084 L2236 2084" /> 
<path d="M2236 2084 L2242 2081" /> 
<path d="M2242 2081 L2245 2079" /> 
<g style = "stroke-linecap:round;" > 
<path d="M2245 2079 L2245 2079" /> 
</g><path d="M2265 2044 L2288 2044" /> 
<g style = "stroke-linecap:round;" > 
<path d="M2288 2044 L2288 2044" /> 
</g><path d="M2273 2024 L2273 2076" /> 
<path d="M2273 2076 L2276 2081" /> 
<path d="M2276 2081 L2282 2084" /> 
<path d="M2282 2084 L2288 2084" /> 
<g style = "stroke-linecap:round;" > 
<path d="M2288 2084 L2288 2084" /> 
</g><path d="M2307 2061 L2353 2061" /> 
<g style = "stroke-linecap:round;" > 
<path d="M2353 2061 L2353 2061" /> 
</g><path d="M2330 2084 L2330 2039" /> 
<g style = "stroke-linecap:round;" > 
<path d="M2330 2039 L2330 2039" /> 
</g></g>
<g style="fill:#00A000; fill-opacity:1.00; stroke:#00A000; stroke-opacity:1.00; stroke-linecap:round; stroke-linejoin:round; stroke-width:0" 
   transform="translate(0.00 0.00) scale(1.00 1.00)">
<ellipse cx="1500" cy="2100" rx="16" ry="16"  /> 
</g>
<g style="fill:#00A000; fill-opacity:1.00; stroke:#00A000; stroke-opacity:1.00; stroke-linecap:round; stroke-linejoin:round; stroke-width:6" 
   transform="translate(0.00 0.00) scale(1.00 1.00)">
<path d="M1400 2100 L1600 2100" /> 
</g>
<g style="fill:#00A000; fill-opacity:1.00; stroke:#00A000; stroke-opacity:1.00; stroke-linecap:round; stroke-linejoin:round; stroke-width:0" 
   transform="translate(0.00 0.00) scale(1.00 1.00)">
<ellipse cx="2100" cy="2700" rx="16" ry="16"  /> 
</g>
<g style="fill:#00A000; fill-opacity:1.00; stroke:#00A000; stroke-opacity:1.00; stroke-linecap:round; stroke-linejoin:round; stroke-width:6" 
   transform="translate(0.00 0.00) scale(1.00 1.00)">
<path d="M2200 2700 L2000 2700" /> 
<path d="M2100 2700 L2100 2600" /> 
<path d="M1500 2100 L1500 2200" /> 
<path d="M2100 2100 L2100 2200" /> 
<path d="M1500 2700 L1500 2600" /> 
<path d="M2200 2100 L2000 2100" /> 
</g>
<g style="fill:#00A000; fill-opacity:1.00; stroke:#00A000; stroke-opacity:1.00; stroke-linecap:round; stroke-linejoin:round; stroke-width:0" 
   transform="translate(0.00 0.00) scale(1.00 1.00)">
<ellipse cx="2100" cy="2100" rx="16" ry="16"  /> 
</g>
<g style="fill:#00A000; fill-opacity:1.00; stroke:#00A000; stroke-opacity:1.00; stroke-linecap:round; stroke-linejoin:round; stroke-width:6" 
   transform="translate(0.00 0.00) scale(1.00 1.00)">
<path d="M1400 2700 L1600 2700" /> 
</g>
<g style="fill:#00A000; fill-opacity:1.00; stroke:#00A000; stroke-opacity:1.00; stroke-linecap:round; stroke-linejoin:round; stroke-width:0" 
   transform="translate(0.00 0.00) scale(1.00 1.00)">
<ellipse cx="1500" cy="2700" rx="16" ry="16"  /> 
</g>
<g style="fill:#A00000; fill-opacity:0.0; stroke:#A00000; stroke-opacity:1.00; stroke-linecap:round; stroke-linejoin:round; stroke-width:6" 
   transform="translate(0.00 0.00) scale(1.00 1.00)">
<path d="M1450 2350 L1550 2350" /> 
<g style = "stroke-linecap:round;" > 
<path d="M1550 2350 L1550 2350" /> 
</g></g>
<g style="fill:#A00000; fill-opacity:1.00; stroke:#A00000; stroke-opacity:1.00; stroke-linecap:round; stroke-linejoin:round; stroke-width:6" 
   transform="translate(0.00 0.00) scale(1.00 1.00)">
<polygon style="fill-rule:evenodd; " 
points="1500,2350
1550,2450
1450,2450
" /> 
<path d="M1500 2450 L1500 2600" /> 
<path d="M1500 2350 L1500 2200" /> 
</g>
<g style="fill:#00A0A0; fill-opacity:0.0; stroke:#00A0A0; stroke-opacity:1.00; stroke-linecap:round; stroke-linejoin:round; stroke-width:6" 
   transform="translate(0.00 0.00) scale(1.00 1.00)">
<path d="M1413 2427 L1373 2427" /> 
<path d="M1373 2427 L1373 2418" /> 
<path d="M1373 2418 L1375 2412" /> 
<path d="M1375 2412 L1379 2408" /> 
<path d="M1379 2408 L1383 2407" /> 
<path d="M1383 2407 L1390 2405" /> 
<path d="M1390 2405 L1396 2405" /> 
<path d="M1396 2405 L1404 2407" /> 
<path d="M1404 2407 L1407 2408" /> 
<path d="M1407 2408 L1411 2412" /> 
<path d="M1411 2412 L1413 2418" /> 
<path d="M1413 2418 L1413 2427" /> 
<path d="M1409 2382 L1411 2380" /> 
<path d="M1411 2380 L1413 2382" /> 
<path d="M1413 2382 L1411 2384" /> 
<path d="M1411 2384 L1409 2382" /> 
<path d="M1409 2382 L1413 2382" /> 
<g style = "stroke-linecap:round;" > 
<path d="M1413 2382 L1413 2382" /> 
</g><path d="M1375 2389 L1373 2386" /> 
<path d="M1373 2386 L1373 2376" /> 
<path d="M1373 2376 L1375 2372" /> 
<path d="M1375 2372 L1379 2370" /> 
<path d="M1379 2370 L1383 2370" /> 
<path d="M1383 2370 L1387 2372" /> 
<path d="M1387 2372 L1388 2374" /> 
<path d="M1388 2374 L1390 2378" /> 
<path d="M1390 2378 L1392 2380" /> 
<path d="M1392 2380 L1396 2382" /> 
<path d="M1396 2382 L1398 2382" /> 
<g style = "stroke-linecap:round;" > 
<path d="M1398 2382 L1398 2382" /> 
</g><path d="M1613 2477 L1573 2477" /> 
<path d="M1573 2477 L1573 2468" /> 
<path d="M1573 2468 L1575 2462" /> 
<path d="M1575 2462 L1579 2458" /> 
<path d="M1579 2458 L1583 2457" /> 
<path d="M1583 2457 L1590 2455" /> 
<path d="M1590 2455 L1596 2455" /> 
<path d="M1596 2455 L1604 2457" /> 
<path d="M1604 2457 L1607 2458" /> 
<path d="M1607 2458 L1611 2462" /> 
<path d="M1611 2462 L1613 2468" /> 
<path d="M1613 2468 L1613 2477" /> 
<path d="M1613 2437 L1573 2437" /> 
<g style = "stroke-linecap:round;" > 
<path d="M1573 2437 L1573 2437" /> 
</g><path d="M1573 2411 L1573 2403" /> 
<path d="M1573 2403 L1575 2399" /> 
<path d="M1575 2399 L1579 2396" /> 
<path d="M1579 2396 L1587 2394" /> 
<path d="M1587 2394 L1600 2394" /> 
<path d="M1600 2394 L1607 2396" /> 
<path d="M1607 2396 L1611 2399" /> 
<path d="M1611 2399 L1613 2403" /> 
<path d="M1613 2403 L1613 2411" /> 
<path d="M1613 2411 L1611 2415" /> 
<path d="M1611 2415 L1607 2418" /> 
<path d="M1607 2418 L1600 2420" /> 
<path d="M1600 2420 L1587 2420" /> 
<path d="M1587 2420 L1579 2418" /> 
<path d="M1579 2418 L1575 2415" /> 
<path d="M1575 2415 L1573 2411" /> 
<path d="M1613 2376 L1573 2376" /> 
<path d="M1573 2376 L1573 2367" /> 
<path d="M1573 2367 L1575 2361" /> 
<path d="M1575 2361 L1579 2357" /> 
<path d="M1579 2357 L1583 2356" /> 
<path d="M1583 2356 L1590 2354" /> 
<path d="M1590 2354 L1596 2354" /> 
<path d="M1596 2354 L1604 2356" /> 
<path d="M1604 2356 L1607 2357" /> 
<path d="M1607 2357 L1611 2361" /> 
<path d="M1611 2361 L1613 2367" /> 
<path d="M1613 2367 L1613 2376" /> 
<path d="M1592 2336 L1592 2323" /> 
<g style = "stroke-linecap:round;" > 
<path d="M1592 2323 L1592 2323" /> 
</g><path d="M1613 2317 L1613 2336" /> 
<path d="M1613 2336 L1573 2336" /> 
<path d="M1573 2336 L1573 2317" /> 
<g style = "stroke-linecap:round;" > 
<path d="M1573 2317 L1573 2317" /> 
</g></g>
<g style="fill:#A00000; fill-opacity:0.0; stroke:#A00000; stroke-opacity:1.00; stroke-linecap:round; stroke-linejoin:round; stroke-width:6" 
   transform="translate(0.00 0.00) scale(1.00 1.00)">
<path d="M2050 2350 L2150 2350" /> 
<g style = "stroke-linecap:round;" > 
<path d="M2150 2350 L2150 2350" /> 
</g></g>
<g style="fill:#A00000; fill-opacity:1.00; stroke:#A00000; stroke-opacity:1.00; stroke-linecap:round; stroke-linejoin:round; stroke-width:6" 
   transform="translate(0.00 0.00) scale(1.00 1.00)">
<polygon style="fill-rule:evenodd; " 
points="2100,2350
2150,2450
2050,2450
" /> 
<path d="M2100 2450 L2100 2600" /> 
<path d="M2100 2350 L2100 2200" /> 
</g>
<g style="fill:#00A0A0; fill-opacity:0.0; stroke:#00A0A0; stroke-opacity:1.00; stroke-linecap:round; stroke-linejoin:round; stroke-width:6" 
   transform="translate(0.00 0.00) scale(1.00 1.00)">
<path d="M2013 2427 L1973 2427" /> 
<path d="M1973 2427 L1973 2418" /> 
<path d="M1973 2418 L1975 2412" /> 
<path d="M1975 2412 L1979 2408" /> 
<path d="M1979 2408 L1983 2407" /> 
<path d="M1983 2407 L1990 2405" /> 
<path d="M1990 2405 L1996 2405" /> 
<path d="M1996 2405 L2004 2407" /> 
<path d="M2004 2407 L2007 2408" /> 
<path d="M2007 2408 L2011 2412" /> 
<path d="M2011 2412 L2013 2418" /> 
<path d="M2013 2418 L2013 2427" /> 
<path d="M2009 2382 L2011 2380" /> 
<path d="M2011 2380 L2013 2382" /> 
<path d="M2013 2382 L2011 2384" /> 
<path d="M2011 2384 L2009 2382" /> 
<path d="M2009 2382 L2013 2382" /> 
<g style = "stroke-linecap:round;" > 
<path d="M2013 2382 L2013 2382" /> 
</g><path d="M1975 2389 L1973 2386" /> 
<path d="M1973 2386 L1973 2376" /> 
<path d="M1973 2376 L1975 2372" /> 
<path d="M1975 2372 L1979 2370" /> 
<path d="M1979 2370 L1983 2370" /> 
<path d="M1983 2370 L1987 2372" /> 
<path d="M1987 2372 L1988 2374" /> 
<path d="M1988 2374 L1990 2378" /> 
<path d="M1990 2378 L1992 2380" /> 
<path d="M1992 2380 L1996 2382" /> 
<path d="M1996 2382 L1998 2382" /> 
<g style = "stroke-linecap:round;" > 
<path d="M1998 2382 L1998 2382" /> 
</g><path d="M2213 2477 L2173 2477" /> 
<path d="M2173 2477 L2173 2468" /> 
<path d="M2173 2468 L2175 2462" /> 
<path d="M2175 2462 L2179 2458" /> 
<path d="M2179 2458 L2183 2457" /> 
<path d="M2183 2457 L2190 2455" /> 
<path d="M2190 2455 L2196 2455" /> 
<path d="M2196 2455 L2204 2457" /> 
<path d="M2204 2457 L2207 2458" /> 
<path d="M2207 2458 L2211 2462" /> 
<path d="M2211 2462 L2213 2468" /> 
<path d="M2213 2468 L2213 2477" /> 
<path d="M2213 2437 L2173 2437" /> 
<g style = "stroke-linecap:round;" > 
<path d="M2173 2437 L2173 2437" /> 
</g><path d="M2173 2411 L2173 2403" /> 
<path d="M2173 2403 L2175 2399" /> 
<path d="M2175 2399 L2179 2396" /> 
<path d="M2179 2396 L2187 2394" /> 
<path d="M2187 2394 L2200 2394" /> 
<path d="M2200 2394 L2207 2396" /> 
<path d="M2207 2396 L2211 2399" /> 
<path d="M2211 2399 L2213 2403" /> 
<path d="M2213 2403 L2213 2411" /> 
<path d="M2213 2411 L2211 2415" /> 
<path d="M2211 2415 L2207 2418" /> 
<path d="M2207 2418 L2200 2420" /> 
<path d="M2200 2420 L2187 2420" /> 
<path d="M2187 2420 L2179 2418" /> 
<path d="M2179 2418 L2175 2415" /> 
<path d="M2175 2415 L2173 2411" /> 
<path d="M2213 2376 L2173 2376" /> 
<path d="M2173 2376 L2173 2367" /> 
<path d="M2173 2367 L2175 2361" /> 
<path d="M2175 2361 L2179 2357" /> 
<path d="M2179 2357 L2183 2356" /> 
<path d="M2183 2356 L2190 2354" /> 
<path d="M2190 2354 L2196 2354" /> 
<path d="M2196 2354 L2204 2356" /> 
<path d="M2204 2356 L2207 2357" /> 
<path d="M2207 2357 L2211 2361" /> 
<path d="M2211 2361 L2213 2367" /> 
<path d="M2213 2367 L2213 2376" /> 
<path d="M2192 2336 L2192 2323" /> 
<g style = "stroke-linecap:round;" > 
<path d="M2192 2323 L2192 2323" /> 
</g><path d="M2213 2317 L2213 2336" /> 
<path d="M2213 2336 L2173 2336" /> 
<path d="M2173 2336 L2173 2317" /> 
<g style = "stroke-linecap:round;" > 
<path d="M2173 2317 L2173 2317" /> 
</g></g>
<g style="fill:#A00000; fill-opacity:0.0; stroke:#A00000; stroke-opacity:1.00; stroke-linecap:round; stroke-linejoin:round; stroke-width:6" 
   transform="translate(0.00 0.00) scale(1.00 1.00)">
<path d="M1850 2050 L1850 2150" /> 
<g style = "stroke-linecap:round;" > 
<path d="M1850 2150 L1850 2150" /> 
</g></g>
<g style="fill:#A00000; fill-opacity:1.00; stroke:#A00000; stroke-opacity:1.00; stroke-linecap:round; stroke-linejoin:round; stroke-width:6" 
   transform="translate(0.00 0.00) scale(1.00 1.00)">
<polygon style="fill-rule:evenodd; " 
points="1850,2100
1750,2150
1750,2050
" /> 
<path d="M1750 2100 L1600 2100" /> 
<path d="M1850 2100 L2000 2100" /> 
</g>
<g style="fill:#00A0A0; fill-opacity:0.0; stroke:#00A0A0; stroke-opacity:1.00; stroke-linecap:round; stroke-linejoin:round; stroke-width:6" 
   transform="translate(0.00 0.00) scale(1.00 1.00)">
<path d="M1773 2013 L1773 1973" /> 
<path d="M1773 1973 L1782 1973" /> 
<path d="M1782 1973 L1788 1975" /> 
<path d="M1788 1975 L1792 1979" /> 
<path d="M1792 1979 L1793 1983" /> 
<path d="M1793 1983 L1795 1990" /> 
<path d="M1795 1990 L1795 1996" /> 
<path d="M1795 1996 L1793 2004" /> 
<path d="M1793 2004 L1792 2007" /> 
<path d="M1792 2007 L1788 2011" /> 
<path d="M1788 2011 L1782 2013" /> 
<path d="M1782 2013 L1773 2013" /> 
<path d="M1818 2009 L1820 2011" /> 
<path d="M1820 2011 L1818 2013" /> 
<path d="M1818 2013 L1816 2011" /> 
<path d="M1816 2011 L1818 2009" /> 
<path d="M1818 2009 L1818 2013" /> 
<g style = "stroke-linecap:round;" > 
<path d="M1818 2013 L1818 2013" /> 
</g><path d="M1811 1975 L1814 1973" /> 
<path d="M1814 1973 L1824 1973" /> 
<path d="M1824 1973 L1828 1975" /> 
<path d="M1828 1975 L1830 1979" /> 
<path d="M1830 1979 L1830 1983" /> 
<path d="M1830 1983 L1828 1987" /> 
<path d="M1828 1987 L1826 1988" /> 
<path d="M1826 1988 L1822 1990" /> 
<path d="M1822 1990 L1820 1992" /> 
<path d="M1820 1992 L1818 1996" /> 
<path d="M1818 1996 L1818 1998" /> 
<g style = "stroke-linecap:round;" > 
<path d="M1818 1998 L1818 1998" /> 
</g><path d="M1722 2213 L1722 2173" /> 
<path d="M1722 2173 L1731 2173" /> 
<path d="M1731 2173 L1737 2175" /> 
<path d="M1737 2175 L1741 2179" /> 
<path d="M1741 2179 L1742 2183" /> 
<path d="M1742 2183 L1744 2190" /> 
<path d="M1744 2190 L1744 2196" /> 
<path d="M1744 2196 L1742 2204" /> 
<path d="M1742 2204 L1741 2207" /> 
<path d="M1741 2207 L1737 2211" /> 
<path d="M1737 2211 L1731 2213" /> 
<path d="M1731 2213 L1722 2213" /> 
<path d="M1762 2213 L1762 2173" /> 
<g style = "stroke-linecap:round;" > 
<path d="M1762 2173 L1762 2173" /> 
</g><path d="M1788 2173 L1796 2173" /> 
<path d="M1796 2173 L1800 2175" /> 
<path d="M1800 2175 L1803 2179" /> 
<path d="M1803 2179 L1805 2187" /> 
<path d="M1805 2187 L1805 2200" /> 
<path d="M1805 2200 L1803 2207" /> 
<path d="M1803 2207 L1800 2211" /> 
<path d="M1800 2211 L1796 2213" /> 
<path d="M1796 2213 L1788 2213" /> 
<path d="M1788 2213 L1784 2211" /> 
<path d="M1784 2211 L1781 2207" /> 
<path d="M1781 2207 L1779 2200" /> 
<path d="M1779 2200 L1779 2187" /> 
<path d="M1779 2187 L1781 2179" /> 
<path d="M1781 2179 L1784 2175" /> 
<path d="M1784 2175 L1788 2173" /> 
<path d="M1823 2213 L1823 2173" /> 
<path d="M1823 2173 L1832 2173" /> 
<path d="M1832 2173 L1838 2175" /> 
<path d="M1838 2175 L1842 2179" /> 
<path d="M1842 2179 L1843 2183" /> 
<path d="M1843 2183 L1845 2190" /> 
<path d="M1845 2190 L1845 2196" /> 
<path d="M1845 2196 L1843 2204" /> 
<path d="M1843 2204 L1842 2207" /> 
<path d="M1842 2207 L1838 2211" /> 
<path d="M1838 2211 L1832 2213" /> 
<path d="M1832 2213 L1823 2213" /> 
<path d="M1863 2192 L1876 2192" /> 
<g style = "stroke-linecap:round;" > 
<path d="M1876 2192 L1876 2192" /> 
</g><path d="M1882 2213 L1863 2213" /> 
<path d="M1863 2213 L1863 2173" /> 
<path d="M1863 2173 L1882 2173" /> 
<g style = "stroke-linecap:round;" > 
<path d="M1882 2173 L1882 2173" /> 
</g></g>
<g style="fill:#A00000; fill-opacity:0.0; stroke:#A00000; stroke-opacity:1.00; stroke-linecap:round; stroke-linejoin:round; stroke-width:6" 
   transform="translate(0.00 0.00) scale(1.00 1.00)">
<path d="M1850 2650 L1850 2750" /> 
<g style = "stroke-linecap:round;" > 
<path d="M1850 2750 L1850 2750" /> 
</g></g>
<g style="fill:#A00000; fill-opacity:1.00; stroke:#A00000; stroke-opacity:1.00; stroke-linecap:round; stroke-linejoin:round; stroke-width:6" 
   transform="translate(0.00 0.00) scale(1.00 1.00)">
<polygon style="fill-rule:evenodd; " 
points="1850,2700
1750,2750
1750,2650
" /> 
<path d="M1750 2700 L1600 2700" /> 
<path d="M1850 2700 L2000 2700" /> 
</g>
<g style="fill:#00A0A0; fill-opacity:0.0; stroke:#00A0A0; stroke-opacity:1.00; stroke-linecap:round; stroke-linejoin:round; stroke-width:6" 
   transform="translate(0.00 0.00) scale(1.00 1.00)">
<path d="M1773 2613 L1773 2573" /> 
<path d="M1773 2573 L1782 2573" /> 
<path d="M1782 2573 L1788 2575" /> 
<path d="M1788 2575 L1792 2579" /> 
<path d="M1792 2579 L1793 2583" /> 
<path d="M1793 2583 L1795 2590" /> 
<path d="M1795 2590 L1795 2596" /> 
<path d="M1795 2596 L1793 2604" /> 
<path d="M1793 2604 L1792 2607" /> 
<path d="M1792 2607 L1788 2611" /> 
<path d="M1788 2611 L1782 2613" /> 
<path d="M1782 2613 L1773 2613" /> 
<path d="M1818 2609 L1820 2611" /> 
<path d="M1820 2611 L1818 2613" /> 
<path d="M1818 2613 L1816 2611" /> 
<path d="M1816 2611 L1818 2609" /> 
<path d="M1818 2609 L1818 2613" /> 
<g style = "stroke-linecap:round;" > 
<path d="M1818 2613 L1818 2613" /> 
</g><path d="M1811 2575 L1814 2573" /> 
<path d="M1814 2573 L1824 2573" /> 
<path d="M1824 2573 L1828 2575" /> 
<path d="M1828 2575 L1830 2579" /> 
<path d="M1830 2579 L1830 2583" /> 
<path d="M1830 2583 L1828 2587" /> 
<path d="M1828 2587 L1826 2588" /> 
<path d="M1826 2588 L1822 2590" /> 
<path d="M1822 2590 L1820 2592" /> 
<path d="M1820 2592 L1818 2596" /> 
<path d="M1818 2596 L1818 2598" /> 
<g style = "stroke-linecap:round;" > 
<path d="M1818 2598 L1818 2598" /> 
</g><path d="M1722 2813 L1722 2773" /> 
<path d="M1722 2773 L1731 2773" /> 
<path d="M1731 2773 L1737 2775" /> 
<path d="M1737 2775 L1741 2779" /> 
<path d="M1741 2779 L1742 2783" /> 
<path d="M1742 2783 L1744 2790" /> 
<path d="M1744 2790 L1744 2796" /> 
<path d="M1744 2796 L1742 2804" /> 
<path d="M1742 2804 L1741 2807" /> 
<path d="M1741 2807 L1737 2811" /> 
<path d="M1737 2811 L1731 2813" /> 
<path d="M1731 2813 L1722 2813" /> 
<path d="M1762 2813 L1762 2773" /> 
<g style = "stroke-linecap:round;" > 
<path d="M1762 2773 L1762 2773" /> 
</g><path d="M1788 2773 L1796 2773" /> 
<path d="M1796 2773 L1800 2775" /> 
<path d="M1800 2775 L1803 2779" /> 
<path d="M1803 2779 L1805 2787" /> 
<path d="M1805 2787 L1805 2800" /> 
<path d="M1805 2800 L1803 2807" /> 
<path d="M1803 2807 L1800 2811" /> 
<path d="M1800 2811 L1796 2813" /> 
<path d="M1796 2813 L1788 2813" /> 
<path d="M1788 2813 L1784 2811" /> 
<path d="M1784 2811 L1781 2807" /> 
<path d="M1781 2807 L1779 2800" /> 
<path d="M1779 2800 L1779 2787" /> 
<path d="M1779 2787 L1781 2779" /> 
<path d="M1781 2779 L1784 2775" /> 
<path d="M1784 2775 L1788 2773" /> 
<path d="M1823 2813 L1823 2773" /> 
<path d="M1823 2773 L1832 2773" /> 
<path d="M1832 2773 L1838 2775" /> 
<path d="M1838 2775 L1842 2779" /> 
<path d="M1842 2779 L1843 2783" /> 
<path d="M1843 2783 L1845 2790" /> 
<path d="M1845 2790 L1845 2796" /> 
<path d="M1845 2796 L1843 2804" /> 
<path d="M1843 2804 L1842 2807" /> 
<path d="M1842 2807 L1838 2811" /> 
<path d="M1838 2811 L1832 2813" /> 
<path d="M1832 2813 L1823 2813" /> 
<path d="M1863 2792 L1876 2792" /> 
<g style = "stroke-linecap:round;" > 
<path d="M1876 2792 L1876 2792" /> 
</g><path d="M1882 2813 L1863 2813" /> 
<path d="M1863 2813 L1863 2773" /> 
<path d="M1863 2773 L1882 2773" /> 
<g style = "stroke-linecap:round;" > 
<path d="M1882 2773 L1882 2773" /> 
</g></g> 
</svg> 
